{"title":"Bachelor.Party.In.The.Bungalow.Of.The.Damned.2008.DVDRip.XViD-SP","uid":6185062,"size":754640554,"categoryP":"video","categoryS":"movies","magnet":"?xt=urn:btih:eedf25def7b08d80a04262e884f68520caa7c79c&amp;dn=Bachelor.Party.In.The.Bungalow.Of.The.Damned.2008.DVDRip.XViD-SP&amp;tr=udp%3A%2F%2Ftracker.openbittorrent.com%3A80&amp;tr=udp%3A%2F%2Fopen.demonii.com%3A1337&amp;tr=udp%3A%2F%2Ftracker.coppersurfer.tk%3A6969&amp;tr=udp%3A%2F%2Fexodus.desync.com%3A6969","seeders":1,"leechers":0,"uploader":"TvTeam","files":6,"time":1298091867,"description":". \n  &lt;a href=&quot;\nhttp://www.torrentday.com/&quot; rel=&quot;nofollow&quot; target=&quot;_NEW&quot;&gt;\nhttp://www.torrentday.com/&lt;/a&gt;        :     The Hottest Private Tracker On The Net!!!\n &lt;a href=&quot;\nhttp://www.torrentday.com&quot; rel=&quot;nofollow&quot; target=&quot;_NEW&quot;&gt;\nhttp://www.torrentday.com&lt;/a&gt;          :     Once &amp; For all ;)\n\n\n               www . TorrentDay . Com \n\n(((((((((((((= Enjoy No RAR releases =))))))))))))))))))))\n\n\n...................................NFO:....................................\n\n.\n                                                     \n                                                   \n                                                         \n                                                          \n                                                           \n                                                          \n                                                          \n                                                          \n                                                           \n                                                         \n                                                          \n                                                        \n                                                      \n                                     \n                                                 \n                                                   \n                                             \n                                              \n                                                     \n                                                      \n                                                      \n                                                      \n                                                    \n                                                     \n                                                   \n                                                     \n                                                     \n                                                      \n                                                     \n                                                      \n                                                    \n                 ARTiCHOKE                        \n                                                \n                      \n                                                        \n                                                      \n                                                      \n                                               \n                                          \n                                                   \n                                            \n                                                    \n                                                       \n                                                        \n                                                      \n                                                \n                                                        \n                                                 \n                                              \n                                                  \n                                                \n                                                  \n                                        \n\n      \n                                \n      SPRiNTER proudly presents...     \n                                \n      \n \nBachelor.Party.In.The.Bungalow.Of.The.Damned.2008.DVDRip.XViD-SPRiNTER &lt;a href=&quot;\nhttp://www.imdb.com/title/tt1260562/&quot; rel=&quot;nofollow&quot; target=&quot;_NEW&quot;&gt;\nhttp://www.imdb.com/title/tt1260562/&lt;/a&gt;\n\n\nDate: 2011.02\nGenre: Horror\nPlot : Sammy holds a wild anything-goes bachelor party for his best friend Chuck at a bungalow in the Hamptons. Things go horribly awry when the three exotic \n\t  dancers hired to provide entertainment for said bash turn out to be ferocious demonic succubus vampires with an insatiable taste for male flesh.\n\n\n\n  Trina Analee  ...  Michelle  \n  Monique Dupree  ...  Emerald  \n  Nathan Faudree  ...  The Bartender  \n  Gregg Aaron Greenberg  ...  Sammy  \n  Kaitlyn Gutkes  ...  Vermillion  \n  Rebecca Hodges  ...  The Reader  \n  Zoe Hunter  \n\n\n      \n                 \n      Release notes     \n                 \n      \n\n     Random ghosting. See vob sample.\n\n\n      \n           \n     Greetings    \n           \n      \n\n\nNTX aAF FiCO HNR CiNEFiLE AEN HUMANiSM SSF\n\n\n      \n           \n      Details     \n           \n      \n\n\nFormat                           : AVI\nFormat/Info                      : Audio Video Interleave\nFile size                        : 697 MiB\nDuration                         : 1h 16mn\nOverall bit rate                 : 1 282 Kbps\nWriting application              : Nandub v1.0rc2\nWriting library                  : Nandub build 1852/release\n\nVideo\nID                               : 0\nFormat                           : MPEG-4 Visual\nFormat profile                   : AdvancedSimple@L5\nFormat settings, BVOP            : No\nFormat settings, QPel            : No\nFormat settings, GMC             : No warppoints\nFormat settings, Matrix          : Default (H.263)\nCodec ID                         : XVID\nCodec ID/Hint                    : XviD\nDuration                         : 1h 16mn\nBit rate                         : 1 128 Kbps\nWidth                            : 576 pixels\nHeight                           : 320 pixels\nDisplay aspect ratio             : 16:9\nFrame rate                       : 23.976 fps\nResolution                       : 24 bits\nColorimetry                      : 4:2:0\nScan type                        : Progressive\nBits/(Pixel*Frame)               : 0.255\nStream size                      : 613 MiB (88%)\nWriting library                  : XviD 1.2.1 (UTC 2008-12-04)\n\nAudio\nID                               : 1\nFormat                           : MPEG Audio\nFormat version                   : Version 1\nFormat profile                   : Layer 3\nCodec ID                         : 55\nCodec ID/Hint                    : MP3\nDuration                         : 1h 16mn\nBit rate mode                    : Variable\nBit rate                         : 141 Kbps\nChannel(s)                       : 2 channels\nSampling rate                    : 48.0 KHz\nResolution                       : 16 bits\nStream size                      : 76.8 MiB (11%)\nAlignment                        : Aligned on interleaves\nInterleave, duration             : 24 ms (0.58 video frame)\nInterleave, preload duration     : 150 ms\nWriting library                  : LAME3.89 (alpha)","torrent":{"xt":"urn:btih:eedf25def7b08d80a04262e884f68520caa7c79c","amp;dn":"Bachelor.Party.In.The.Bungalow.Of.The.Damned.2008.DVDRip.XViD-SP","amp;tr":["udp%3A%2F%2Ftracker.openbittorrent.com%3A80","udp%3A%2F%2Fopen.demonii.com%3A1337","udp%3A%2F%2Ftracker.coppersurfer.tk%3A6969","udp%3A%2F%2Fexodus.desync.com%3A6969"],"infoHash":"eedf25def7b08d80a04262e884f68520caa7c79c","infoHashBuffer":{"type":"Buffer","data":[238,223,37,222,247,176,141,128,160,66,98,232,132,246,133,32,202,167,199,156]},"announce":[],"urlList":[]}}